# File created by Blade
# Date/Time:  Tue Sep 30 19:10:28 2014
#---------------------------------------------------------
:version 1.10
:name HOM
:units
  mass 1.0
  length 1.000000
  angle deg
:documentation
     Acclaim Skeleton File
:root
   axis xyz
   order TX TY TZ RX RY RZ
   position 0.000000 0.000000 0.000000
   orientation 0 0 0
:bonedata
   begin
      id 1
      name Spine_dum
      direction 0.000000 1.000000 0.000000
      length 7.508948
      axis 0.0 0.0 0.0 xyz
   end
   begin
      id 2
      name LeftUpLeg_dum
      direction 1.000000 0.000000 0.000000
      length 3.000560
      axis 0.0 0.0 0.0 xyz
   end
   begin
      id 3
      name RightUpLeg_dum
      direction -1.000000 0.000000 0.000000
      length 3.000560
      axis 0.0 0.0 0.0 xyz
   end
   begin
      id 4
      name Spine
      direction 0.000000 1.000000 0.000000
      length 0.000000
      axis 0.0 0.0 0.0 xyz
      dof rx ry rz
   end
   begin
      id 5
      name Spine_dum1
      direction 0.000000 1.000000 0.000000
      length 13.861154
      axis 0.0 0.0 0.0 xyz
   end
   begin
      id 6
      name Spine_dum2
      direction 0.000000 1.000000 0.000000
      length 8.204781
      axis 0.0 0.0 0.0 xyz
   end
   begin
      id 7
      name Spine_dum3
      direction 0.000000 1.000000 0.000000
      length 8.204781
      axis 0.0 0.0 0.0 xyz
   end
   begin
      id 8
      name Head
      direction 0.000000 1.000000 0.000000
      length 4.527550
      axis 0.0 0.0 0.0 xyz
      dof rx ry rz
   end
   begin
      id 9
      name LeftShoulder
      direction 1.000000 0.000000 0.000000
      length 6.635956
      axis 0.0 0.0 -90.0 xyz
      dof rx ry rz
   end
   begin
      id 10
      name LeftArm
      direction 1.000000 0.000000 0.000000
      length 10.274218
      axis 0.0 0.0 -90.0 xyz
      dof rx ry rz
   end
   begin
      id 11
      name LeftForeArm
      direction 1.000000 0.000000 0.000000
      length 8.522147
      axis 0.0 0.0 -90.0 xyz
      dof ry rz rx
   end
   begin
      id 12
      name LeftHand
      direction 0.000000 0.000000 0.000000
      length 0.000000
      axis 0.0 0.0 -90.0 xyz
      dof rx ry rz
   end
   begin
      id 13
      name LeftHand_dum1
      direction 0.000000 0.000000 0.000000
      length 0.000000
      axis 0.0 0.0 -90.0 xyz
   end
   begin
      id 14
      name LeftHand_dum2
      direction 1.000000 0.000000 0.000000
      length 3.937000
      axis 0.0 0.0 -90.0 xyz
   end
   begin
      id 15
      name LeftHandThumb1
      direction 0.000000 0.000000 1.000000
      length 3.937000
      axis 0.0 0.0 -90.0 xyz
      dof rx rz ry
   end
   begin
      id 16
      name RightShoulder
      direction -1.000000 0.000000 0.000000
      length 6.635956
      axis 0.0 0.0 90.0 xyz
      dof rx ry rz
   end
   begin
      id 17
      name RightArm
      direction -1.000000 0.000000 0.000000
      length 10.274218
      axis 0.0 0.0 90.0 xyz
      dof rx ry rz
   end
   begin
      id 18
      name RightForeArm
      direction -1.000000 0.000000 0.000000
      length 8.522147
      axis 0.0 0.0 90.0 xyz
      dof ry rz rx
   end
   begin
      id 19
      name RightHand
      direction 0.000000 0.000000 0.000000
      length 0.000000
      axis 0.0 0.0 90.0 xyz
      dof rx ry rz
   end
   begin
      id 20
      name RightHand_dum1
      direction 0.000000 0.000000 0.000000
      length 0.000000
      axis 0.0 0.0 90.0 xyz
   end
   begin
      id 21
      name RightHand_dum2
      direction -1.000000 0.000000 0.000000
      length 3.937000
      axis 0.0 0.0 90.0 xyz
   end
   begin
      id 22
      name RightHandThumb1
      direction 0.000000 0.000000 1.000000
      length 3.937000
      axis 0.0 0.0 90.0 xyz
      dof rx rz ry
   end
   begin
      id 23
      name LeftUpLeg
      direction 0.000000 -1.000000 0.000000
      length 16.490845
      axis 0.0 0.0 0.0 xyz
      dof rx ry rz
   end
   begin
      id 24
      name LeftLeg
      direction 0.000000 -1.000000 0.000000
      length 14.556576
      axis 0.0 0.0 0.0 xyz
      dof rx ry rz
   end
   begin
      id 25
      name LeftFoot
      direction 0.000000 -0.258819 0.965926
      length 4.831116
      axis 15.0 0.0 0.0 xyz
      dof rx ry rz
   end
   begin
      id 26
      name LeftToeBase
      direction 0.000000 0.000000 1.000000
      length 2.952750
      axis 0.0 0.0 0.0 xyz
      dof rx ry rz
   end
   begin
      id 27
      name RightUpLeg
      direction 0.000000 -1.000000 0.000000
      length 16.490845
      axis 0.0 0.0 0.0 xyz
      dof rx ry rz
   end
   begin
      id 28
      name RightLeg
      direction 0.000000 -1.000000 0.000000
      length 14.556576
      axis 0.0 0.0 0.0 xyz
      dof rx ry rz
   end
   begin
      id 29
      name RightFoot
      direction 0.000000 -0.258819 0.965926
      length 4.831116
      axis 15.0 0.0 0.0 xyz
      dof rx ry rz
   end
   begin
      id 30
      name RightToeBase
      direction 0.000000 0.000000 1.000000
      length 2.952750
      axis 0.0 0.0 0.0 xyz
      dof rx ry rz
   end
:hierarchy
   begin
      root Spine_dum LeftUpLeg_dum RightUpLeg_dum
      Spine_dum Spine
      LeftUpLeg_dum LeftUpLeg
      RightUpLeg_dum RightUpLeg
      Spine Spine_dum1 Spine_dum2 Spine_dum3
      Spine_dum1 Head
      Spine_dum2 LeftShoulder
      Spine_dum3 RightShoulder
      LeftShoulder LeftArm
      LeftArm LeftForeArm
      LeftForeArm LeftHand
      LeftHand LeftHand_dum1 LeftHand_dum2
      LeftHand_dum1 LeftHandThumb1
      RightShoulder RightArm
      RightArm RightForeArm
      RightForeArm RightHand
      RightHand RightHand_dum1 RightHand_dum2
      RightHand_dum1 RightHandThumb1
      LeftUpLeg LeftLeg
      LeftLeg LeftFoot
      LeftFoot LeftToeBase
      RightUpLeg RightLeg
      RightLeg RightFoot
      RightFoot RightToeBase
   end

# File created by Blade
# Date/Time:  Wed Sep 24 19:10:19 2014
# Frame Rate: 120.000 fps
#------------------------------------------------------
:FULLY-SPECIFIED
:DEGREES
421
root -6.872716 33.773776 -2.465422 0.162419 -27.296052 14.898776
Spine -11.735955 11.122995 -12.124600
Head 7.890770 -4.586516 3.529021
LeftShoulder -11.356212 19.511903 13.634186
LeftArm 10.348147 -31.736944 -65.117247
LeftForeArm 9.347888 0.000000 67.194082
LeftHand -35.600973 -0.000000 43.700830
LeftHandThumb1 -26.253704 0.000000 33.147579
RightShoulder -19.324702 9.003735 -21.145019
RightArm -16.202559 -29.436284 94.077457
RightForeArm -21.408665 -0.000000 24.307083
RightHand -5.264631 -0.000000 10.676518
RightHandThumb1 -24.326973 -0.000000 -32.862282
LeftUpLeg -82.158442 -10.383413 7.369738
LeftLeg 132.012762 -0.000000 -0.000000
LeftFoot 41.999121 -5.403580 -11.561264
LeftToeBase 11.891060 -0.000000 -0.000000
RightUpLeg -9.254944 3.934664 -11.600343
RightLeg 11.559510 -0.000000 -0.000000
RightFoot -9.952166 9.043049 -8.122309
RightToeBase -2.525671 -0.000000 0.000000
422
root -6.875491 33.767334 -2.475129 0.176688 -27.220966 14.804865
Spine -11.685874 11.068699 -11.943787
Head 7.891608 -4.646183 3.328919
LeftShoulder -11.366583 19.466654 13.576493
LeftArm 10.568554 -31.550333 -65.222435
LeftForeArm 9.406048 -0.000000 67.075243
LeftHand -35.543440 -0.000000 43.742882
LeftHandThumb1 -26.253704 0.000000 33.147579
RightShoulder -19.281954 8.992322 -21.158802
RightArm -16.180516 -29.654022 94.054029
RightForeArm -21.427456 0.000000 24.353599
RightHand -5.258833 -0.000000 10.703558
RightHandThumb1 -24.326973 -0.000000 -32.862282
LeftUpLeg -82.142013 -10.388089 7.733947
LeftLeg 131.286348 -0.000000 -0.000000
LeftFoot 42.010721 -5.288233 -11.070344
LeftToeBase 10.102301 -0.000000 -0.000000
RightUpLeg -9.116808 4.166060 -11.519448
RightLeg 11.359146 -0.000000 -0.000000
RightFoot -9.890253 8.751681 -8.129681
RightToeBase -2.544476 -0.000000 0.000000
423
root -6.877546 33.760175 -2.478764 0.134318 -27.157071 14.739752
Spine -11.609766 11.056128 -11.810744
Head 7.919853 -4.741111 3.186259
LeftShoulder -11.337727 19.434661 13.547875
LeftArm 10.785767 -31.337229 -65.313205
LeftForeArm 9.511632 -0.000000 66.986825
LeftHand -35.613042 -0.000000 43.834353
LeftHandThumb1 -26.253704 0.000000 33.147579
RightShoulder -19.249848 8.978589 -21.144414
RightArm -16.146654 -29.850409 94.006487
RightForeArm -21.503414 -0.000000 24.362151
RightHand -5.285699 -0.000000 10.731926
RightHandThumb1 -24.326973 -0.000000 -32.862282
LeftUpLeg -82.067059 -10.427146 8.043240
LeftLeg 130.757860 -0.000000 -0.000000
LeftFoot 41.949256 -5.331877 -10.522261
LeftToeBase 9.706223 -0.000000 -0.000000
RightUpLeg -8.980174 4.212009 -11.455275
RightLeg 11.263527 -0.000000 -0.000000
RightFoot -9.919304 8.665765 -8.099566
RightToeBase -2.477032 -0.000000 0.000000
424
root -6.879837 33.751939 -2.481951 0.118575 -27.096084 14.651160
Spine -11.558537 11.035090 -11.655677
Head 7.961996 -4.815074 3.081076
LeftShoulder -11.296767 19.342927 13.536395
LeftArm 10.874079 -31.074051 -65.348908
LeftForeArm 9.585000 0.000000 66.931743
LeftHand -35.644682 -0.000000 44.109809
LeftHandThumb1 -26.253704 0.000000 33.147579
RightShoulder -19.247772 8.967246 -21.150075
RightArm -16.104139 -30.049512 93.952783
RightForeArm -21.576080 -0.000000 24.345475
RightHand -5.253404 0.000000 10.807562
RightHandThumb1 -24.326973 -0.000000 -32.862282
LeftUpLeg -82.009660 -10.477885 8.398882
LeftLeg 130.437517 -0.000000 -0.000000
LeftFoot 41.880907 -5.238717 -10.296275
LeftToeBase 9.185784 -0.000000 -0.000000
RightUpLeg -8.880483 4.200644 -11.367290
RightLeg 11.208754 -0.000000 -0.000000
RightFoot -9.942419 8.632798 -8.092105
RightToeBase -2.463537 -0.000000 0.000000
425
root -6.882086 33.745514 -2.480313 0.073985 -27.068548 14.606925
Spine -11.526650 11.041153 -11.570346
Head 8.021658 -4.895746 3.029797
LeftShoulder -11.257315 19.291864 13.532715
LeftArm 11.008505 -30.826029 -65.382755
LeftForeArm 9.701157 -0.000000 66.875934
LeftHand -35.668327 0.000000 44.267638
LeftHandThumb1 -26.253704 0.000000 33.147579
RightShoulder -19.262855 8.954165 -21.135471
RightArm -16.066817 -30.227640 93.900830
RightForeArm -21.652242 -0.000000 24.302838
RightHand -5.207254 -0.000000 10.855932
RightHandThumb1 -24.326973 -0.000000 -32.862282
LeftUpLeg -81.911329 -10.505463 8.682102
LeftLeg 130.358035 -0.000000 -0.000000
LeftFoot 41.671075 -4.932823 -10.505830
LeftToeBase 9.771292 -0.000000 -0.000000
RightUpLeg -8.776858 4.170693 -11.319738
RightLeg 11.157929 -0.000000 -0.000000
RightFoot -9.989169 8.647221 -8.078281
RightToeBase -2.412881 -0.000000 0.000000
